<?xml version="1.0" encoding="UTF-8" standalone="no"?>
<!DOCTYPE svg PUBLIC "-//W3C//DTD SVG 1.1//EN" "http://www.w3.org/Graphics/SVG/1.1/DTD/svg11.dtd">
<svg width="100%" height="100%" viewBox="0 0 2143 397" version="1.1" xmlns="http://www.w3.org/2000/svg" xmlns:xlink="http://www.w3.org/1999/xlink" xml:space="preserve" xmlns:serif="http://www.serif.com/" style="fill-rule:evenodd;clip-rule:evenodd;stroke-linejoin:round;stroke-miterlimit:2;">
    <g transform="matrix(3.125,0,0,3.125,0,0)">
        <g transform="matrix(0.264801,0.285508,-0.364778,0.344956,109.614,-107.258)">
            <ellipse cx="159.612" cy="227.756" rx="54.004" ry="19.887" style="fill:rgb(0,75,178);"/>
        </g>
        <g transform="matrix(0.322661,0,0,0.458895,-33.1282,-13.9063)">
            <ellipse cx="322.491" cy="263.065" rx="219.819" ry="43.591" style="fill:rgb(0,75,178);"/>
        </g>
        <g transform="matrix(0.376152,-0.177114,0.141443,0.306285,-149.89,45.4754)">
            <ellipse cx="469.028" cy="314.189" rx="124.403" ry="43.403" style="fill:rgb(255,102,0);"/>
        </g>
        <g transform="matrix(1,0,0,1,-131.038,-34.5917)">
            <g transform="matrix(68,0,0,68,293.238,98.9548)">
                <path d="M0.477,-0.28L0.477,-0.42C0.477,-0.439 0.473,-0.457 0.466,-0.474C0.459,-0.491 0.449,-0.506 0.436,-0.519C0.423,-0.532 0.408,-0.542 0.391,-0.549C0.374,-0.556 0.356,-0.56 0.337,-0.56C0.318,-0.56 0.3,-0.556 0.282,-0.549C0.265,-0.542 0.25,-0.532 0.238,-0.519C0.225,-0.506 0.215,-0.491 0.208,-0.474C0.2,-0.457 0.197,-0.439 0.197,-0.42L0.197,-0.28L0.477,-0.28ZM0.617,-0L0.477,-0L0.477,-0.14L0.197,-0.14L0.197,-0L0.057,-0L0.057,-0.42C0.057,-0.459 0.064,-0.495 0.079,-0.529C0.094,-0.563 0.114,-0.593 0.139,-0.618C0.164,-0.644 0.194,-0.664 0.228,-0.678C0.262,-0.693 0.298,-0.7 0.337,-0.7C0.376,-0.7 0.412,-0.693 0.446,-0.678C0.48,-0.664 0.51,-0.644 0.535,-0.618C0.561,-0.593 0.581,-0.563 0.595,-0.529C0.61,-0.495 0.617,-0.459 0.617,-0.42L0.617,-0Z" style="fill:rgb(0,51,122);fill-rule:nonzero;"/>
            </g>
            <g transform="matrix(68,0,0,68,339.058,98.9548)">
                <path d="M0.626,-0.35C0.626,-0.318 0.622,-0.287 0.614,-0.257C0.605,-0.227 0.593,-0.199 0.578,-0.174C0.563,-0.148 0.545,-0.124 0.523,-0.103C0.502,-0.081 0.479,-0.063 0.453,-0.048C0.427,-0.033 0.399,-0.021 0.369,-0.012C0.339,-0.004 0.308,-0 0.276,-0L0.065,-0L0.065,-0.7L0.276,-0.7C0.308,-0.7 0.339,-0.696 0.369,-0.688C0.399,-0.679 0.427,-0.668 0.453,-0.652C0.479,-0.637 0.502,-0.619 0.523,-0.597C0.545,-0.576 0.563,-0.552 0.578,-0.527C0.593,-0.501 0.605,-0.473 0.614,-0.443C0.622,-0.413 0.626,-0.382 0.626,-0.35ZM0.486,-0.35C0.486,-0.379 0.48,-0.406 0.469,-0.432C0.459,-0.457 0.444,-0.479 0.425,-0.498C0.406,-0.517 0.383,-0.532 0.358,-0.543C0.332,-0.555 0.305,-0.56 0.276,-0.56L0.206,-0.56L0.206,-0.14L0.276,-0.14C0.305,-0.14 0.332,-0.146 0.358,-0.156C0.383,-0.167 0.406,-0.182 0.425,-0.201C0.444,-0.22 0.459,-0.243 0.469,-0.268C0.48,-0.294 0.486,-0.321 0.486,-0.35Z" style="fill:rgb(0,51,122);fill-rule:nonzero;"/>
            </g>
            <g transform="matrix(68,0,0,68,383.517,98.9548)">
                <path d="M0.555,-0L0.065,-0L0.065,-0.7L0.205,-0.7L0.205,-0.14L0.555,-0.14L0.555,-0Z" style="fill:rgb(0,51,122);fill-rule:nonzero;"/>
            </g>
            <g transform="matrix(68,0,0,68,421.801,98.9548)">
                <rect x="0.065" y="-0.7" width="0.14" height="0.7" style="fill:rgb(0,51,122);fill-rule:nonzero;"/>
            </g>
            <g transform="matrix(68,0,0,68,440.162,98.9548)">
                <path d="M0.624,-0.072C0.591,-0.044 0.555,-0.022 0.515,-0.007C0.474,0.008 0.432,0.015 0.389,0.015C0.356,0.015 0.324,0.011 0.293,0.002C0.262,-0.006 0.234,-0.019 0.207,-0.034C0.18,-0.05 0.155,-0.069 0.133,-0.091C0.111,-0.113 0.092,-0.138 0.076,-0.165C0.061,-0.192 0.048,-0.22 0.04,-0.251C0.031,-0.282 0.027,-0.314 0.027,-0.347C0.027,-0.38 0.031,-0.412 0.04,-0.443C0.048,-0.474 0.061,-0.503 0.076,-0.53C0.092,-0.557 0.111,-0.581 0.133,-0.604C0.155,-0.626 0.18,-0.645 0.207,-0.66C0.234,-0.676 0.262,-0.688 0.293,-0.697C0.324,-0.706 0.356,-0.71 0.389,-0.71C0.432,-0.71 0.474,-0.703 0.515,-0.688C0.555,-0.673 0.591,-0.651 0.624,-0.623L0.55,-0.501C0.529,-0.523 0.505,-0.54 0.477,-0.552C0.449,-0.564 0.42,-0.57 0.389,-0.57C0.358,-0.57 0.329,-0.564 0.302,-0.552C0.275,-0.541 0.252,-0.525 0.231,-0.505C0.211,-0.485 0.195,-0.461 0.184,-0.434C0.172,-0.407 0.166,-0.378 0.166,-0.347C0.166,-0.317 0.172,-0.288 0.184,-0.261C0.195,-0.234 0.211,-0.211 0.231,-0.19C0.252,-0.17 0.275,-0.154 0.302,-0.143C0.329,-0.131 0.358,-0.125 0.389,-0.125C0.42,-0.125 0.449,-0.131 0.477,-0.143C0.505,-0.155 0.529,-0.172 0.55,-0.194L0.624,-0.072Z" style="fill:rgb(0,51,122);fill-rule:nonzero;"/>
            </g>
            <g transform="matrix(68,0,0,68,483.691,98.9548)">
                <path d="M0.205,-0L0.065,-0L0.065,-0.7L0.205,-0.7L0.205,-0.42L0.485,-0.42L0.485,-0.7L0.625,-0.7L0.625,-0L0.485,-0L0.485,-0.28L0.205,-0.28L0.205,-0Z" style="fill:rgb(0,51,122);fill-rule:nonzero;"/>
            </g>
            <g transform="matrix(68,0,0,68,530.607,98.9548)">
                <path d="M0.205,-0L0.065,-0L0.065,-0.7L0.205,-0.7L0.205,-0.42L0.485,-0.42L0.485,-0.7L0.625,-0.7L0.625,-0L0.485,-0L0.485,-0.28L0.205,-0.28L0.205,-0Z" style="fill:rgb(0,51,122);fill-rule:nonzero;"/>
            </g>
            <g transform="matrix(68,0,0,68,577.523,98.9548)">
                <path d="M0.477,-0.28L0.477,-0.42C0.477,-0.439 0.473,-0.457 0.466,-0.474C0.459,-0.491 0.449,-0.506 0.436,-0.519C0.423,-0.532 0.408,-0.542 0.391,-0.549C0.374,-0.556 0.356,-0.56 0.337,-0.56C0.318,-0.56 0.3,-0.556 0.282,-0.549C0.265,-0.542 0.25,-0.532 0.238,-0.519C0.225,-0.506 0.215,-0.491 0.208,-0.474C0.2,-0.457 0.197,-0.439 0.197,-0.42L0.197,-0.28L0.477,-0.28ZM0.617,-0L0.477,-0L0.477,-0.14L0.197,-0.14L0.197,-0L0.057,-0L0.057,-0.42C0.057,-0.459 0.064,-0.495 0.079,-0.529C0.094,-0.563 0.114,-0.593 0.139,-0.618C0.164,-0.644 0.194,-0.664 0.228,-0.678C0.262,-0.693 0.298,-0.7 0.337,-0.7C0.376,-0.7 0.412,-0.693 0.446,-0.678C0.48,-0.664 0.51,-0.644 0.535,-0.618C0.561,-0.593 0.581,-0.563 0.595,-0.529C0.61,-0.495 0.617,-0.459 0.617,-0.42L0.617,-0Z" style="fill:rgb(0,51,122);fill-rule:nonzero;"/>
            </g>
            <g transform="matrix(68,0,0,68,623.344,98.9548)">
                <path d="M0.76,-0L0.62,-0L0.62,-0.5C0.62,-0.51 0.618,-0.519 0.615,-0.527C0.611,-0.536 0.606,-0.543 0.599,-0.55C0.593,-0.556 0.586,-0.561 0.577,-0.564C0.569,-0.568 0.56,-0.57 0.55,-0.57C0.54,-0.57 0.531,-0.568 0.522,-0.564C0.514,-0.561 0.507,-0.556 0.5,-0.55C0.494,-0.543 0.489,-0.536 0.485,-0.527C0.482,-0.519 0.48,-0.51 0.48,-0.5L0.48,-0L0.34,-0L0.34,-0.5C0.34,-0.51 0.338,-0.519 0.334,-0.527C0.331,-0.536 0.326,-0.543 0.32,-0.55C0.313,-0.556 0.306,-0.561 0.297,-0.564C0.289,-0.568 0.28,-0.57 0.27,-0.57C0.26,-0.57 0.251,-0.568 0.243,-0.564C0.234,-0.561 0.227,-0.556 0.22,-0.55C0.214,-0.543 0.209,-0.536 0.206,-0.527C0.202,-0.519 0.2,-0.51 0.2,-0.5L0.2,-0L0.06,-0L0.06,-0.5C0.06,-0.529 0.066,-0.556 0.076,-0.582C0.087,-0.607 0.102,-0.63 0.121,-0.649C0.14,-0.668 0.163,-0.683 0.188,-0.694C0.214,-0.705 0.241,-0.71 0.27,-0.71C0.296,-0.71 0.321,-0.705 0.345,-0.696C0.369,-0.687 0.391,-0.673 0.41,-0.656C0.429,-0.673 0.451,-0.687 0.475,-0.696C0.499,-0.705 0.524,-0.71 0.55,-0.71C0.579,-0.71 0.606,-0.705 0.632,-0.694C0.657,-0.683 0.679,-0.668 0.698,-0.649C0.718,-0.63 0.733,-0.607 0.743,-0.582C0.754,-0.556 0.76,-0.529 0.76,-0.5L0.76,-0Z" style="fill:rgb(0,51,122);fill-rule:nonzero;"/>
            </g>
            <g transform="matrix(68,0,0,68,679.092,98.9548)">
                <path d="M0.76,-0L0.62,-0L0.62,-0.5C0.62,-0.51 0.618,-0.519 0.615,-0.527C0.611,-0.536 0.606,-0.543 0.599,-0.55C0.593,-0.556 0.586,-0.561 0.577,-0.564C0.569,-0.568 0.56,-0.57 0.55,-0.57C0.54,-0.57 0.531,-0.568 0.522,-0.564C0.514,-0.561 0.507,-0.556 0.5,-0.55C0.494,-0.543 0.489,-0.536 0.485,-0.527C0.482,-0.519 0.48,-0.51 0.48,-0.5L0.48,-0L0.34,-0L0.34,-0.5C0.34,-0.51 0.338,-0.519 0.334,-0.527C0.331,-0.536 0.326,-0.543 0.32,-0.55C0.313,-0.556 0.306,-0.561 0.297,-0.564C0.289,-0.568 0.28,-0.57 0.27,-0.57C0.26,-0.57 0.251,-0.568 0.243,-0.564C0.234,-0.561 0.227,-0.556 0.22,-0.55C0.214,-0.543 0.209,-0.536 0.206,-0.527C0.202,-0.519 0.2,-0.51 0.2,-0.5L0.2,-0L0.06,-0L0.06,-0.5C0.06,-0.529 0.066,-0.556 0.076,-0.582C0.087,-0.607 0.102,-0.63 0.121,-0.649C0.14,-0.668 0.163,-0.683 0.188,-0.694C0.214,-0.705 0.241,-0.71 0.27,-0.71C0.296,-0.71 0.321,-0.705 0.345,-0.696C0.369,-0.687 0.391,-0.673 0.41,-0.656C0.429,-0.673 0.451,-0.687 0.475,-0.696C0.499,-0.705 0.524,-0.71 0.55,-0.71C0.579,-0.71 0.606,-0.705 0.632,-0.694C0.657,-0.683 0.679,-0.668 0.698,-0.649C0.718,-0.63 0.733,-0.607 0.743,-0.582C0.754,-0.556 0.76,-0.529 0.76,-0.5L0.76,-0Z" style="fill:rgb(0,51,122);fill-rule:nonzero;"/>
            </g>
            <g transform="matrix(68,0,0,68,734.84,98.9548)">
                <path d="M0.545,-0L0.065,-0L0.065,-0.7L0.545,-0.7L0.545,-0.56L0.205,-0.56L0.205,-0.42L0.435,-0.42L0.435,-0.28L0.205,-0.28L0.205,-0.14L0.545,-0.14L0.545,-0Z" style="fill:rgb(0,51,122);fill-rule:nonzero;"/>
            </g>
            <g transform="matrix(68,0,0,68,774.152,98.9548)">
                <path d="M0.205,-0.56L0.205,-0.28L0.345,-0.28C0.364,-0.28 0.382,-0.283 0.399,-0.291C0.416,-0.298 0.431,-0.308 0.444,-0.321C0.457,-0.333 0.467,-0.348 0.474,-0.365C0.481,-0.383 0.485,-0.401 0.485,-0.42C0.485,-0.439 0.481,-0.457 0.474,-0.474C0.467,-0.491 0.457,-0.506 0.444,-0.519C0.431,-0.532 0.416,-0.542 0.399,-0.549C0.382,-0.556 0.364,-0.56 0.345,-0.56L0.205,-0.56ZM0.205,-0L0.065,-0L0.065,-0.7L0.345,-0.7C0.371,-0.7 0.396,-0.697 0.419,-0.69C0.443,-0.684 0.465,-0.674 0.486,-0.662C0.507,-0.65 0.526,-0.635 0.543,-0.618C0.56,-0.601 0.574,-0.582 0.587,-0.561C0.599,-0.54 0.608,-0.518 0.615,-0.494C0.622,-0.47 0.625,-0.446 0.625,-0.42C0.625,-0.396 0.622,-0.372 0.616,-0.35C0.61,-0.327 0.601,-0.305 0.59,-0.285C0.579,-0.264 0.565,-0.245 0.549,-0.228C0.533,-0.211 0.514,-0.196 0.494,-0.183L0.572,-0L0.423,-0L0.362,-0.141L0.205,-0.14L0.205,-0Z" style="fill:rgb(0,51,122);fill-rule:nonzero;"/>
            </g>
        </g>
        <g transform="matrix(1,0,0,1,-87.1019,-31.0936)">
            <g transform="matrix(40,0,0,40,271.143,145.139)">
                <path d="M0.287,-0.699C0.364,-0.699 0.431,-0.685 0.486,-0.657C0.541,-0.629 0.584,-0.589 0.613,-0.536C0.642,-0.483 0.657,-0.421 0.657,-0.348C0.657,-0.276 0.642,-0.214 0.613,-0.162C0.584,-0.109 0.541,-0.069 0.486,-0.042C0.431,-0.014 0.364,-0 0.287,-0L0.08,-0L0.08,-0.699L0.287,-0.699ZM0.287,-0.058C0.384,-0.058 0.459,-0.084 0.51,-0.135C0.561,-0.186 0.586,-0.257 0.586,-0.348C0.586,-0.44 0.561,-0.512 0.51,-0.564C0.459,-0.615 0.384,-0.641 0.287,-0.641L0.15,-0.641L0.15,-0.058L0.287,-0.058Z" style="fill:rgb(0,51,122);fill-rule:nonzero;"/>
            </g>
            <g transform="matrix(40,0,0,40,299.383,145.139)">
                <rect x="0.08" y="-0.699" width="0.07" height="0.699" style="fill:rgb(0,51,122);fill-rule:nonzero;"/>
            </g>
            <g transform="matrix(40,0,0,40,308.543,145.139)">
                <path d="M0.63,-0.495C0.61,-0.541 0.58,-0.577 0.539,-0.604C0.498,-0.63 0.449,-0.643 0.394,-0.643C0.342,-0.643 0.295,-0.631 0.254,-0.607C0.213,-0.583 0.18,-0.549 0.156,-0.505C0.132,-0.46 0.12,-0.409 0.12,-0.35C0.12,-0.291 0.132,-0.24 0.156,-0.195C0.18,-0.15 0.213,-0.116 0.254,-0.092C0.295,-0.068 0.342,-0.056 0.394,-0.056C0.443,-0.056 0.487,-0.067 0.526,-0.088C0.564,-0.109 0.596,-0.138 0.62,-0.178C0.643,-0.217 0.657,-0.262 0.66,-0.314L0.366,-0.314L0.366,-0.371L0.734,-0.371L0.734,-0.32C0.731,-0.259 0.714,-0.203 0.684,-0.154C0.654,-0.104 0.614,-0.065 0.564,-0.036C0.513,-0.007 0.457,0.007 0.394,0.007C0.329,0.007 0.271,-0.008 0.218,-0.039C0.165,-0.069 0.124,-0.111 0.094,-0.166C0.063,-0.22 0.048,-0.281 0.048,-0.35C0.048,-0.419 0.063,-0.48 0.094,-0.535C0.124,-0.589 0.165,-0.631 0.218,-0.662C0.271,-0.692 0.329,-0.707 0.394,-0.707C0.469,-0.707 0.534,-0.688 0.59,-0.651C0.646,-0.614 0.687,-0.562 0.712,-0.495L0.63,-0.495Z" style="fill:rgb(0,51,122);fill-rule:nonzero;"/>
            </g>
            <g transform="matrix(40,0,0,40,339.823,145.139)">
                <rect x="0.08" y="-0.699" width="0.07" height="0.699" style="fill:rgb(0,51,122);fill-rule:nonzero;"/>
            </g>
            <g transform="matrix(40,0,0,40,348.983,145.139)">
                <path d="M0.489,-0.699L0.489,-0.641L0.295,-0.641L0.295,-0L0.225,-0L0.225,-0.641L0.03,-0.641L0.03,-0.699L0.489,-0.699Z" style="fill:rgb(0,51,122);fill-rule:nonzero;"/>
            </g>
            <g transform="matrix(40,0,0,40,369.783,145.139)">
                <path d="M0.485,-0.166L0.167,-0.166L0.106,-0L0.032,-0L0.287,-0.69L0.366,-0.69L0.62,-0L0.546,-0L0.485,-0.166ZM0.464,-0.224L0.326,-0.602L0.188,-0.224L0.464,-0.224Z" style="fill:rgb(0,51,122);fill-rule:nonzero;"/>
            </g>
            <g transform="matrix(40,0,0,40,395.863,145.139)">
                <path d="M0.15,-0.057L0.401,-0.057L0.401,-0L0.08,-0L0.08,-0.699L0.15,-0.699L0.15,-0.057Z" style="fill:rgb(0,51,122);fill-rule:nonzero;"/>
            </g>
            <g transform="matrix(40,0,0,40,423.663,145.139)">
                <path d="M0.527,-0.498C0.527,-0.438 0.507,-0.39 0.468,-0.353C0.429,-0.316 0.37,-0.298 0.291,-0.298L0.15,-0.298L0.15,-0L0.08,-0L0.08,-0.699L0.291,-0.699C0.369,-0.699 0.428,-0.681 0.468,-0.644C0.507,-0.607 0.527,-0.559 0.527,-0.498ZM0.291,-0.358C0.4,-0.358 0.455,-0.405 0.455,-0.498C0.455,-0.545 0.442,-0.58 0.416,-0.604C0.39,-0.628 0.348,-0.64 0.291,-0.64L0.15,-0.64L0.15,-0.358L0.291,-0.358Z" style="fill:rgb(0,51,122);fill-rule:nonzero;"/>
            </g>
            <g transform="matrix(40,0,0,40,446.223,145.139)">
                <path d="M0.452,-0L0.279,-0.292L0.15,-0.292L0.15,-0L0.08,-0L0.08,-0.699L0.29,-0.699C0.368,-0.699 0.427,-0.68 0.468,-0.643C0.508,-0.606 0.528,-0.557 0.528,-0.496C0.528,-0.445 0.514,-0.402 0.485,-0.367C0.456,-0.331 0.413,-0.308 0.356,-0.297L0.536,-0L0.452,-0ZM0.15,-0.349L0.291,-0.349C0.346,-0.349 0.387,-0.362 0.415,-0.389C0.442,-0.416 0.456,-0.451 0.456,-0.496C0.456,-0.542 0.443,-0.578 0.416,-0.603C0.389,-0.628 0.347,-0.64 0.29,-0.64L0.15,-0.64L0.15,-0.349Z" style="fill:rgb(0,51,122);fill-rule:nonzero;"/>
            </g>
            <g transform="matrix(40,0,0,40,469.703,145.139)">
                <path d="M0.394,0.007C0.329,0.007 0.271,-0.008 0.218,-0.039C0.165,-0.069 0.124,-0.111 0.094,-0.166C0.063,-0.22 0.048,-0.281 0.048,-0.35C0.048,-0.419 0.063,-0.48 0.094,-0.535C0.124,-0.589 0.165,-0.631 0.218,-0.662C0.271,-0.692 0.329,-0.707 0.394,-0.707C0.459,-0.707 0.518,-0.692 0.571,-0.662C0.624,-0.631 0.665,-0.589 0.695,-0.535C0.725,-0.48 0.74,-0.419 0.74,-0.35C0.74,-0.281 0.725,-0.22 0.695,-0.166C0.665,-0.111 0.624,-0.069 0.571,-0.039C0.518,-0.008 0.459,0.007 0.394,0.007ZM0.394,-0.054C0.446,-0.054 0.493,-0.066 0.534,-0.09C0.575,-0.114 0.608,-0.149 0.632,-0.194C0.656,-0.239 0.668,-0.291 0.668,-0.35C0.668,-0.409 0.656,-0.461 0.632,-0.506C0.608,-0.551 0.575,-0.585 0.534,-0.609C0.493,-0.633 0.446,-0.645 0.394,-0.645C0.342,-0.645 0.295,-0.633 0.254,-0.609C0.213,-0.585 0.18,-0.551 0.156,-0.506C0.132,-0.461 0.12,-0.409 0.12,-0.35C0.12,-0.291 0.132,-0.239 0.156,-0.194C0.18,-0.149 0.213,-0.114 0.254,-0.09C0.295,-0.066 0.342,-0.054 0.394,-0.054Z" style="fill:rgb(0,51,122);fill-rule:nonzero;"/>
            </g>
            <g transform="matrix(40,0,0,40,501.223,145.139)">
                <path d="M0.287,-0.699C0.364,-0.699 0.431,-0.685 0.486,-0.657C0.541,-0.629 0.584,-0.589 0.613,-0.536C0.642,-0.483 0.657,-0.421 0.657,-0.348C0.657,-0.276 0.642,-0.214 0.613,-0.162C0.584,-0.109 0.541,-0.069 0.486,-0.042C0.431,-0.014 0.364,-0 0.287,-0L0.08,-0L0.08,-0.699L0.287,-0.699ZM0.287,-0.058C0.384,-0.058 0.459,-0.084 0.51,-0.135C0.561,-0.186 0.586,-0.257 0.586,-0.348C0.586,-0.44 0.561,-0.512 0.51,-0.564C0.459,-0.615 0.384,-0.641 0.287,-0.641L0.15,-0.641L0.15,-0.058L0.287,-0.058Z" style="fill:rgb(0,51,122);fill-rule:nonzero;"/>
            </g>
            <g transform="matrix(40,0,0,40,529.463,145.139)">
                <path d="M0.147,-0.699L0.147,-0.259C0.147,-0.19 0.164,-0.138 0.197,-0.105C0.23,-0.072 0.275,-0.055 0.332,-0.055C0.389,-0.055 0.434,-0.071 0.467,-0.105C0.499,-0.137 0.515,-0.189 0.515,-0.259L0.515,-0.699L0.585,-0.699L0.585,-0.26C0.585,-0.171 0.562,-0.105 0.515,-0.06C0.467,-0.015 0.406,0.007 0.331,0.007C0.256,0.007 0.195,-0.015 0.148,-0.06C0.1,-0.105 0.077,-0.171 0.077,-0.26L0.077,-0.699L0.147,-0.699Z" style="fill:rgb(0,51,122);fill-rule:nonzero;"/>
            </g>
            <g transform="matrix(40,0,0,40,555.903,145.139)">
                <path d="M0.048,-0.35C0.048,-0.419 0.063,-0.48 0.093,-0.535C0.123,-0.589 0.164,-0.631 0.216,-0.662C0.268,-0.692 0.326,-0.707 0.39,-0.707C0.468,-0.707 0.535,-0.689 0.591,-0.652C0.646,-0.614 0.687,-0.562 0.712,-0.495L0.63,-0.495C0.61,-0.542 0.58,-0.579 0.539,-0.606C0.498,-0.633 0.448,-0.646 0.39,-0.646C0.339,-0.646 0.293,-0.634 0.252,-0.61C0.211,-0.586 0.178,-0.552 0.155,-0.507C0.132,-0.462 0.12,-0.409 0.12,-0.35C0.12,-0.291 0.132,-0.239 0.155,-0.194C0.178,-0.149 0.211,-0.115 0.252,-0.091C0.293,-0.067 0.339,-0.055 0.39,-0.055C0.448,-0.055 0.498,-0.068 0.539,-0.095C0.58,-0.121 0.61,-0.157 0.63,-0.204L0.712,-0.204C0.687,-0.137 0.646,-0.086 0.59,-0.049C0.534,-0.012 0.467,0.006 0.39,0.006C0.326,0.006 0.268,-0.009 0.216,-0.04C0.164,-0.07 0.123,-0.112 0.093,-0.166C0.063,-0.22 0.048,-0.281 0.048,-0.35Z" style="fill:rgb(0,51,122);fill-rule:nonzero;"/>
            </g>
            <g transform="matrix(40,0,0,40,586.743,145.139)">
                <path d="M0.489,-0.699L0.489,-0.641L0.295,-0.641L0.295,-0L0.225,-0L0.225,-0.641L0.03,-0.641L0.03,-0.699L0.489,-0.699Z" style="fill:rgb(0,51,122);fill-rule:nonzero;"/>
            </g>
            <g transform="matrix(40,0,0,40,618.503,145.139)">
                <path d="M0.394,0.007C0.329,0.007 0.271,-0.008 0.218,-0.039C0.165,-0.069 0.124,-0.111 0.094,-0.166C0.063,-0.22 0.048,-0.281 0.048,-0.35C0.048,-0.419 0.063,-0.48 0.094,-0.535C0.124,-0.589 0.165,-0.631 0.218,-0.662C0.271,-0.692 0.329,-0.707 0.394,-0.707C0.459,-0.707 0.518,-0.692 0.571,-0.662C0.624,-0.631 0.665,-0.589 0.695,-0.535C0.725,-0.48 0.74,-0.419 0.74,-0.35C0.74,-0.281 0.725,-0.22 0.695,-0.166C0.665,-0.111 0.624,-0.069 0.571,-0.039C0.518,-0.008 0.459,0.007 0.394,0.007ZM0.394,-0.054C0.446,-0.054 0.493,-0.066 0.534,-0.09C0.575,-0.114 0.608,-0.149 0.632,-0.194C0.656,-0.239 0.668,-0.291 0.668,-0.35C0.668,-0.409 0.656,-0.461 0.632,-0.506C0.608,-0.551 0.575,-0.585 0.534,-0.609C0.493,-0.633 0.446,-0.645 0.394,-0.645C0.342,-0.645 0.295,-0.633 0.254,-0.609C0.213,-0.585 0.18,-0.551 0.156,-0.506C0.132,-0.461 0.12,-0.409 0.12,-0.35C0.12,-0.291 0.132,-0.239 0.156,-0.194C0.18,-0.149 0.213,-0.114 0.254,-0.09C0.295,-0.066 0.342,-0.054 0.394,-0.054Z" style="fill:rgb(0,51,122);fill-rule:nonzero;"/>
            </g>
            <g transform="matrix(40,0,0,40,650.023,145.139)">
                <path d="M0.928,-0.699L0.73,-0L0.652,-0L0.476,-0.596L0.296,-0L0.22,0.001L0.026,-0.699L0.101,-0.699L0.261,-0.086L0.44,-0.699L0.518,-0.699L0.692,-0.086L0.853,-0.699L0.928,-0.699Z" style="fill:rgb(0,51,122);fill-rule:nonzero;"/>
            </g>
            <g transform="matrix(40,0,0,40,688.223,145.139)">
                <path d="M0.607,-0L0.537,-0L0.15,-0.588L0.15,-0L0.08,-0L0.08,-0.699L0.15,-0.699L0.537,-0.112L0.537,-0.699L0.607,-0.699L0.607,-0Z" style="fill:rgb(0,51,122);fill-rule:nonzero;"/>
            </g>
            <g transform="matrix(40,0,0,40,715.663,145.139)">
                <path d="M0.15,-0.642L0.15,-0.381L0.415,-0.381L0.415,-0.323L0.15,-0.323L0.15,-0.058L0.445,-0.058L0.445,-0L0.08,-0L0.08,-0.7L0.445,-0.7L0.445,-0.642L0.15,-0.642Z" style="fill:rgb(0,51,122);fill-rule:nonzero;"/>
            </g>
            <g transform="matrix(40,0,0,40,735.783,145.139)">
                <path d="M0.452,-0L0.279,-0.292L0.15,-0.292L0.15,-0L0.08,-0L0.08,-0.699L0.29,-0.699C0.368,-0.699 0.427,-0.68 0.468,-0.643C0.508,-0.606 0.528,-0.557 0.528,-0.496C0.528,-0.445 0.514,-0.402 0.485,-0.367C0.456,-0.331 0.413,-0.308 0.356,-0.297L0.536,-0L0.452,-0ZM0.15,-0.349L0.291,-0.349C0.346,-0.349 0.387,-0.362 0.415,-0.389C0.442,-0.416 0.456,-0.451 0.456,-0.496C0.456,-0.542 0.443,-0.578 0.416,-0.603C0.389,-0.628 0.347,-0.64 0.29,-0.64L0.15,-0.64L0.15,-0.349Z" style="fill:rgb(0,51,122);fill-rule:nonzero;"/>
            </g>
        </g>
        <g transform="matrix(1,0,0,1,268.703,30.3127)">
            <g transform="matrix(68,0,0,68,130.835,34.1951)">
                <path d="M0.205,-0L0.065,-0L0.065,-0.7L0.205,-0.7L0.205,-0.42L0.485,-0.42L0.485,-0.7L0.625,-0.7L0.625,-0L0.485,-0L0.485,-0.28L0.205,-0.28L0.205,-0Z" style="fill:rgb(241,98,0);fill-rule:nonzero;"/>
            </g>
            <g transform="matrix(68,0,0,68,177.751,34.1951)">
                <path d="M0.477,-0.28L0.477,-0.42C0.477,-0.439 0.473,-0.457 0.466,-0.474C0.459,-0.491 0.449,-0.506 0.436,-0.519C0.423,-0.532 0.408,-0.542 0.391,-0.549C0.374,-0.556 0.356,-0.56 0.337,-0.56C0.318,-0.56 0.3,-0.556 0.282,-0.549C0.265,-0.542 0.25,-0.532 0.238,-0.519C0.225,-0.506 0.215,-0.491 0.208,-0.474C0.2,-0.457 0.197,-0.439 0.197,-0.42L0.197,-0.28L0.477,-0.28ZM0.617,-0L0.477,-0L0.477,-0.14L0.197,-0.14L0.197,-0L0.057,-0L0.057,-0.42C0.057,-0.459 0.064,-0.495 0.079,-0.529C0.094,-0.563 0.114,-0.593 0.139,-0.618C0.164,-0.644 0.194,-0.664 0.228,-0.678C0.262,-0.693 0.298,-0.7 0.337,-0.7C0.376,-0.7 0.412,-0.693 0.446,-0.678C0.48,-0.664 0.51,-0.644 0.535,-0.618C0.561,-0.593 0.581,-0.563 0.595,-0.529C0.61,-0.495 0.617,-0.459 0.617,-0.42L0.617,-0Z" style="fill:rgb(241,98,0);fill-rule:nonzero;"/>
            </g>
            <g transform="matrix(68,0,0,68,223.571,34.1951)">
                <path d="M0.76,-0L0.62,-0L0.62,-0.5C0.62,-0.51 0.618,-0.519 0.615,-0.527C0.611,-0.536 0.606,-0.543 0.599,-0.55C0.593,-0.556 0.586,-0.561 0.577,-0.564C0.569,-0.568 0.56,-0.57 0.55,-0.57C0.54,-0.57 0.531,-0.568 0.522,-0.564C0.514,-0.561 0.507,-0.556 0.5,-0.55C0.494,-0.543 0.489,-0.536 0.485,-0.527C0.482,-0.519 0.48,-0.51 0.48,-0.5L0.48,-0L0.34,-0L0.34,-0.5C0.34,-0.51 0.338,-0.519 0.334,-0.527C0.331,-0.536 0.326,-0.543 0.32,-0.55C0.313,-0.556 0.306,-0.561 0.297,-0.564C0.289,-0.568 0.28,-0.57 0.27,-0.57C0.26,-0.57 0.251,-0.568 0.243,-0.564C0.234,-0.561 0.227,-0.556 0.22,-0.55C0.214,-0.543 0.209,-0.536 0.206,-0.527C0.202,-0.519 0.2,-0.51 0.2,-0.5L0.2,-0L0.06,-0L0.06,-0.5C0.06,-0.529 0.066,-0.556 0.076,-0.582C0.087,-0.607 0.102,-0.63 0.121,-0.649C0.14,-0.668 0.163,-0.683 0.188,-0.694C0.214,-0.705 0.241,-0.71 0.27,-0.71C0.296,-0.71 0.321,-0.705 0.345,-0.696C0.369,-0.687 0.391,-0.673 0.41,-0.656C0.429,-0.673 0.451,-0.687 0.475,-0.696C0.499,-0.705 0.524,-0.71 0.55,-0.71C0.579,-0.71 0.606,-0.705 0.632,-0.694C0.657,-0.683 0.679,-0.668 0.698,-0.649C0.718,-0.63 0.733,-0.607 0.743,-0.582C0.754,-0.556 0.76,-0.529 0.76,-0.5L0.76,-0Z" style="fill:rgb(241,98,0);fill-rule:nonzero;"/>
            </g>
            <g transform="matrix(68,0,0,68,279.319,34.1951)">
                <path d="M0.76,-0L0.62,-0L0.62,-0.5C0.62,-0.51 0.618,-0.519 0.615,-0.527C0.611,-0.536 0.606,-0.543 0.599,-0.55C0.593,-0.556 0.586,-0.561 0.577,-0.564C0.569,-0.568 0.56,-0.57 0.55,-0.57C0.54,-0.57 0.531,-0.568 0.522,-0.564C0.514,-0.561 0.507,-0.556 0.5,-0.55C0.494,-0.543 0.489,-0.536 0.485,-0.527C0.482,-0.519 0.48,-0.51 0.48,-0.5L0.48,-0L0.34,-0L0.34,-0.5C0.34,-0.51 0.338,-0.519 0.334,-0.527C0.331,-0.536 0.326,-0.543 0.32,-0.55C0.313,-0.556 0.306,-0.561 0.297,-0.564C0.289,-0.568 0.28,-0.57 0.27,-0.57C0.26,-0.57 0.251,-0.568 0.243,-0.564C0.234,-0.561 0.227,-0.556 0.22,-0.55C0.214,-0.543 0.209,-0.536 0.206,-0.527C0.202,-0.519 0.2,-0.51 0.2,-0.5L0.2,-0L0.06,-0L0.06,-0.5C0.06,-0.529 0.066,-0.556 0.076,-0.582C0.087,-0.607 0.102,-0.63 0.121,-0.649C0.14,-0.668 0.163,-0.683 0.188,-0.694C0.214,-0.705 0.241,-0.71 0.27,-0.71C0.296,-0.71 0.321,-0.705 0.345,-0.696C0.369,-0.687 0.391,-0.673 0.41,-0.656C0.429,-0.673 0.451,-0.687 0.475,-0.696C0.499,-0.705 0.524,-0.71 0.55,-0.71C0.579,-0.71 0.606,-0.705 0.632,-0.694C0.657,-0.683 0.679,-0.668 0.698,-0.649C0.718,-0.63 0.733,-0.607 0.743,-0.582C0.754,-0.556 0.76,-0.529 0.76,-0.5L0.76,-0Z" style="fill:rgb(241,98,0);fill-rule:nonzero;"/>
            </g>
            <g transform="matrix(68,0,0,68,335.067,34.1951)">
                <path d="M0.545,-0L0.065,-0L0.065,-0.7L0.545,-0.7L0.545,-0.56L0.205,-0.56L0.205,-0.42L0.435,-0.42L0.435,-0.28L0.205,-0.28L0.205,-0.14L0.545,-0.14L0.545,-0Z" style="fill:rgb(241,98,0);fill-rule:nonzero;"/>
            </g>
            <g transform="matrix(68,0,0,68,374.38,34.1951)">
                <path d="M0.205,-0.56L0.205,-0.28L0.345,-0.28C0.364,-0.28 0.382,-0.283 0.399,-0.291C0.416,-0.298 0.431,-0.308 0.444,-0.321C0.457,-0.333 0.467,-0.348 0.474,-0.365C0.481,-0.383 0.485,-0.401 0.485,-0.42C0.485,-0.439 0.481,-0.457 0.474,-0.474C0.467,-0.491 0.457,-0.506 0.444,-0.519C0.431,-0.532 0.416,-0.542 0.399,-0.549C0.382,-0.556 0.364,-0.56 0.345,-0.56L0.205,-0.56ZM0.205,-0L0.065,-0L0.065,-0.7L0.345,-0.7C0.371,-0.7 0.396,-0.697 0.419,-0.69C0.443,-0.684 0.465,-0.674 0.486,-0.662C0.507,-0.65 0.526,-0.635 0.543,-0.618C0.56,-0.601 0.574,-0.582 0.587,-0.561C0.599,-0.54 0.608,-0.518 0.615,-0.494C0.622,-0.47 0.625,-0.446 0.625,-0.42C0.625,-0.396 0.622,-0.372 0.616,-0.35C0.61,-0.327 0.601,-0.305 0.59,-0.285C0.579,-0.264 0.565,-0.245 0.549,-0.228C0.533,-0.211 0.514,-0.196 0.494,-0.183L0.572,-0L0.423,-0L0.362,-0.141L0.205,-0.14L0.205,-0Z" style="fill:rgb(241,98,0);fill-rule:nonzero;"/>
            </g>
        </g>
    </g>
</svg>
